<?xml version="1.0" encoding="UTF-8"?>
<svg id="Layer_1" data-name="Layer 1" xmlns="http://www.w3.org/2000/svg" viewBox="0 0 156.39 140">
  <defs>
    <style>
      .cls-1 {
        fill: #00f8f2;
      }

      .cls-2 {
        fill: #00f839;
      }
    </style>
  </defs>
  <g>
    <path d="m71.59,94.33s0,0,0,0c-.34.34-.64.71-.92,1.09-.04.06-.08.11-.12.16-.26.37-.49.77-.7,1.18-.04.08-.07.15-.11.23-.19.42-.36.85-.49,1.3-.02.07-.03.14-.05.21-.17.62-.27,1.27-.3,1.93,0,.14-.02.27-.02.41,0,.01,0,.02,0,.03,0,.01,0,.02,0,.04h0c0,.64.07,1.27.19,1.87,0,0,0,0,0,0,.02.1.05.2.08.31.03.12.06.24.09.36.02.07.03.15.06.22,0,0,0,0,0,0,.12.38.27.75.44,1.11.03.07.07.15.11.22.18.36.37.71.59,1.05.01.02.02.04.03.06,0,0,0,0,0,0,.13.2.28.38.42.57.03.03.05.07.07.1,0,0,0,.01.01.02.18.22.37.43.57.63.02.02.04.04.06.06h0c.17.17.35.33.53.49.04.03.08.07.12.11,0,0,0,0,0,0,.37.31.77.58,1.18.82h0s.01,0,.02.01c.52.31,1.06.56,1.64.77,0,0,0,0,.01,0h0c.96.34,1.99.53,3.07.53,0,0,0,0,0,0,0,0,0,0,0,0,.3,0,.59-.02.88-.04h0c.29-.03.57-.07.85-.12,0,0,0,0,0,0,.02,0,.03,0,.05,0,0,0,0,0,0,0,.09-.02.18-.04.26-.06,0,0,0,0,0,0,.13-.03.27-.07.4-.1.08-.02.15-.04.23-.06.02,0,.03,0,.05-.01.01,0,.03,0,.04-.01h0s0,0,.01,0c.45-.14.87-.32,1.29-.52h0s.03-.01.05-.02c.46-.23.89-.49,1.3-.78.04-.03.08-.06.12-.09.37-.27.72-.57,1.05-.89,0,0,0,0,0,0h0c4.98-4.98,13.05-4.98,18.03,0h0c1.69,1.69,4.01,2.73,6.58,2.73,5.13,0,9.31-4.18,9.31-9.31s-4.18-9.31-9.31-9.31c-2.57,0-4.9,1.04-6.58,2.73h0c-4.98,4.98-13.05,4.98-18.03,0h0s0,0,0,0c0,0,0,0,0,0t0,0h0s0,0,0,0c-1.22-1.22-2.14-2.64-2.76-4.15-.31-.76-.54-1.53-.69-2.32-.15-.79-.23-1.59-.23-2.4s.08-1.61.23-2.4c.46-2.37,1.61-4.64,3.44-6.47"/>
    <path d="m84.75,76.58h0c4.98-4.98,13.05-4.98,18.03,0h0c1.69,1.69,4.01,2.73,6.58,2.73,5.13,0,9.31-4.18,9.31-9.31s-4.18-9.31-9.31-9.31c-2.57,0-4.9,1.04-6.58,2.73h0c-4.98,4.98-13.05,4.98-18.03,0,0,0-.31-.28-.47-.42-.07-.06-.13-.12-.2-.18-.19-.15-.38-.3-.58-.44-.05-.03-.09-.07-.13-.1-.23-.16-.48-.3-.72-.44-.01,0-.03-.02-.04-.03-.22-.12-.44-.22-.67-.32-.05-.02-.09-.05-.14-.07-.25-.11-.5-.2-.76-.28-.03,0-.06-.02-.09-.03-.17-.05-.35-.09-.53-.14-.12-.03-.24-.07-.36-.09-.05,0-.09-.01-.14-.02-.56-.11-1.14-.17-1.74-.17-.01,0-.02,0-.04,0-.01,0-.02,0-.04,0-2.57,0-4.9,1.04-6.58,2.73h0c-4.98,4.98-13.05,4.98-18.03,0h0s0,0,0,0c0,0,0,0,0,0h0c-4.9-4.9-4.9-12.84,0-17.74h0s0,0,0,0h0c4.98-4.97,13.05-4.97,18.03,0h0c1.69,1.69,4.01,2.73,6.58,2.73,5.13,0,9.31-4.18,9.31-9.31s-4.18-9.31-9.31-9.31c-2.57,0-4.9,1.04-6.58,2.73h0c-4.98,4.98-13.05,4.98-18.03,0h0c-1.69-1.69-4.01-2.73-6.58-2.73-5.13,0-9.31,4.18-9.31,9.31,0,2.57,1.04,4.9,2.73,6.58h0c4.9,4.9,4.9,12.84,0,17.74h0s0,0,0,0c0,0,0,0,0,0,0,0,0,0,0,0-1.68,1.69-2.73,4.02-2.73,6.58s1.04,4.89,2.73,6.58h0s0,0,0,0c0,0,0,0,0,0,4.9,4.9,4.9,12.85,0,17.74,0,0-.81.9-1.14,1.38-.04.05-.07.11-.1.17-.45.7-.82,1.46-1.07,2.27,0,.02,0,.04-.02.06-.08.27-.16.55-.21.83,0,.04-.01.08-.02.12-.05.27-.1.53-.12.81-.03.29-.04.58-.04.88,0,.02,0,.05,0,.07,0,.64.07,1.27.19,1.87.05.23.11.45.17.67.02.07.03.15.06.22.26.84.64,1.63,1.12,2.34.02.03.04.06.06.09.16.23.32.45.5.66.01.02.03.04.04.05.15.19.32.36.49.53.04.04.07.09.12.13,0,0,0,0,0,0,.69.69,1.49,1.27,2.37,1.72.05.02.1.05.14.07.4.19.8.37,1.23.5.03,0,.05.02.08.03h0s.06.01.09.02c.08.02.15.04.23.06.13.04.26.07.4.1.09.02.18.04.26.06.02,0,.03,0,.05,0,0,0,0,0,0,0,.28.05.56.1.85.12.29.03.59.04.88.04,1.12,0,2.2-.21,3.19-.58,1-.37,1.92-.89,2.72-1.55,0,0,0,0,0,0,0,0,0,0,0,0,.37-.3.7-.64,1.02-1,.05-.05.1-.1.14-.15.29-.35.56-.71.8-1.1.05-.07.09-.14.13-.22.23-.39.44-.8.61-1.23.03-.07.05-.13.07-.2.17-.45.32-.92.42-1.41.12-.61.19-1.23.19-1.87,0-.96-.15-1.89-.42-2.77h0s-.01-.03-.02-.04c-.12-.39-.28-.76-.45-1.13-.04-.08-.07-.15-.11-.23-.31-.62-1.53-2.21-1.73-2.41,0,0,0,0,0,0,0,0,0,0,0,0h0c-4.9-4.9-4.89-12.84,0-17.74h0s0,0,0,0c0,0,0,0,0,0,0,0,0,0,0,0h0c4.98-4.97,13.05-4.97,18.03,0l.24.21c.12.12.06.06.18.17,1.72,1.84,2.73,4.03,3.13,6.35,0,0,0,.01,0,.02.06.38.11.76.14,1.14,0,.03,0,.06,0,.08.03.36.04.72.03,1.08,0,.05,0,.1,0,.15,0,.34-.03.67-.06,1.01,0,.08-.02.16-.04.24-.04.31-.08.61-.14.92-.02.11-.05.21-.08.32-.06.28-.13.55-.21.82-.04.14-.09.27-.14.4-.08.24-.16.48-.26.72-.07.16-.15.32-.22.48-.09.2-.18.41-.29.61-.1.19-.22.37-.33.55-.1.17-.19.34-.3.5-.14.22-.31.42-.47.63-.09.12-.18.25-.27.37-.27.32-.55.65-.85.95h0s0,0,0,0"/>
    <circle cx="109.49" cy="39.09" r="9.31" transform="translate(-2.5 7.86) rotate(-4.07)"/>
  </g>
  <circle class="cls-2" cx="109.49" cy="100.91" r="4.16"/>
  <circle class="cls-1" cx="46.9" cy="39.09" r="4.16"/>
  <circle class="cls-1" cx="46.9" cy="100.91" r="4.16"/>
  <circle class="cls-2" cx="78.17" cy="69.75" r="4.16"/>
  <circle class="cls-2" cx="109.49" cy="39.09" r="4.16"/>
</svg>